# xmcd CD database file
#
# Track frame offsets:
#	150
#	15671
#	29797
#	50590
#	64857
#	75237
#	86538
#	97171
#	108837
#	119650
#	141627
#	163598
#	179274
#	193097
#	203942
#	217040
#	227632
#	245702
#	258956
#	270230
#
# Disc length: 3805 seconds
#
# Revision: 0
# Processed by: cddbd v1.5PL3 Copyright (c) Steve Scherf et al.
# Submitted via: CDex 1.51
#
DISCID=260edb14
DTITLE=Nancy Wilson - Her Greatest Songs
DYEAR=2004
DGENRE=Jazz
TTITLE0=Smoke Gets In Your Eyes
TTITLE1=Bewitched
TTITLE2=The Two Of Us
TTITLE3=All Night Long
TTITLE4=Our Day Will Come
TTITLE5=Reach Out For Me
TTITLE6=Satin Doll
TTITLE7=Someone To Watch Over Me
TTITLE8=On Green Dolphin Street
TTITLE9=As Time Goes By
TTITLE10=Misty
TTITLE11=Guess Who I Saw Today
TTITLE12=Alfie
TTITLE13=What Are You Doing New Year's Eve
TTITLE14=Fly Me To The Moon
TTITLE15=Never I Will Marry
TTITLE16=Sunny
TTITLE17=In A Sentimental Mood
TTITLE18=Here's That Rainy Day
TTITLE19=Can't Take My Eyes Off You
EXTD=YEAR: 2004
EXTT0=
EXTT1=
EXTT2=
EXTT3=
EXTT4=
EXTT5=
EXTT6=
EXTT7=
EXTT8=
EXTT9=
EXTT10=
EXTT11=
EXTT12=
EXTT13=
EXTT14=
EXTT15=
EXTT16=
EXTT17=
EXTT18=
EXTT19=
PLAYORDER=
